REM DIRINDEX 1\2\3,1\2\4,1\2\5,1\2\6
REM DIRNAME cjc157,folder01,folder02,folder03,folder04,folder05
TITLE ""
FILE "182 182.mp3" MP3
  TRACK 01 AUDIO
    TITLE "0:"
    INDEX 01 00:00:00
  TRACK 02 AUDIO
    TITLE "3:cjc157_6591"
    INDEX 01 00:00:05
  TRACK 03 AUDIO
    TITLE "0:"
    INDEX 01 00:02:28
  TRACK 04 AUDIO
    TITLE "4:cjc157_6592"
    INDEX 01 00:03:02
  TRACK 05 AUDIO
    TITLE "0:"
    INDEX 01 00:04:42
  TRACK 06 AUDIO
    TITLE "5:cjc157_6593"
    INDEX 01 00:05:14
  TRACK 07 AUDIO
    TITLE "0:"
    INDEX 01 00:09:32
  TRACK 08 AUDIO
    TITLE "3:cjc157_6594"
    INDEX 01 00:09:73
  TRACK 09 AUDIO
    TITLE "0:"
    INDEX 01 00:11:27
  TRACK 10 AUDIO
    TITLE "4:cjc157_6595"
    INDEX 01 00:11:70
  TRACK 11 AUDIO
    TITLE "0:"
    INDEX 01 00:15:60
  TRACK 12 AUDIO
    TITLE "5:cjc157_6596"
    INDEX 01 00:16:26
  TRACK 13 AUDIO
    TITLE "0:"
    INDEX 01 00:19:56
  TRACK 14 AUDIO
    TITLE "5:cjc157_6597"
    INDEX 01 00:20:24
  TRACK 15 AUDIO
    TITLE "0:"
    INDEX 01 00:25:70
  TRACK 16 AUDIO
    TITLE "3:cjc157_6598"
    INDEX 01 00:26:36
  TRACK 17 AUDIO
    TITLE "0:"
    INDEX 01 00:27:59
  TRACK 18 AUDIO
    TITLE "4:cjc157_6599"
    INDEX 01 00:28:27
  TRACK 19 AUDIO
    TITLE "0:"
    INDEX 01 00:30:01
  TRACK 20 AUDIO
    TITLE "5:cjc157_6600"
    INDEX 01 00:30:44
  TRACK 21 AUDIO
    TITLE "0:"
    INDEX 01 00:34:32
  TRACK 22 AUDIO
    TITLE "5:cjc157_6601"
    INDEX 01 00:35:02
  TRACK 23 AUDIO
    TITLE "0:"
    INDEX 01 00:38:14
  TRACK 24 AUDIO
    TITLE "3:cjc157_6602"
    INDEX 01 00:38:63
  TRACK 25 AUDIO
    TITLE "0:"
    INDEX 01 00:40:19
  TRACK 26 AUDIO
    TITLE "4:cjc157_6603"
    INDEX 01 00:40:60
  TRACK 27 AUDIO
    TITLE "0:"
    INDEX 01 00:42:25
  TRACK 28 AUDIO
    TITLE "5:cjc157_6604"
    INDEX 01 00:42:66
  TRACK 29 AUDIO
    TITLE "0:"
    INDEX 01 00:45:41
  TRACK 30 AUDIO
    TITLE "3:cjc157_6605"
    INDEX 01 00:46:13
  TRACK 31 AUDIO
    TITLE "0:"
    INDEX 01 00:47:36
  TRACK 32 AUDIO
    TITLE "4:cjc157_6606"
    INDEX 01 00:48:08
  TRACK 33 AUDIO
    TITLE "0:"
    INDEX 01 00:49:61
  TRACK 34 AUDIO
    TITLE "5:cjc157_6607"
    INDEX 01 00:50:33
  TRACK 35 AUDIO
    TITLE "0:"
    INDEX 01 00:53:62
  TRACK 36 AUDIO
    TITLE "3:cjc157_6608"
    INDEX 01 00:54:32
  TRACK 37 AUDIO
    TITLE "0:"
    INDEX 01 00:55:73
  TRACK 38 AUDIO
    TITLE "4:cjc157_6609"
    INDEX 01 00:56:43
  TRACK 39 AUDIO
    TITLE "0:"
    INDEX 01 00:58:15
  TRACK 40 AUDIO
    TITLE "5:cjc157_6610"
    INDEX 01 00:58:62
  TRACK 41 AUDIO
    TITLE "0:"
    INDEX 01 01:02:54
  TRACK 42 AUDIO
    TITLE "3:cjc157_6611"
    INDEX 01 01:03:26
  TRACK 43 AUDIO
    TITLE "0:"
    INDEX 01 01:04:25
  TRACK 44 AUDIO
    TITLE "4:cjc157_6612"
    INDEX 01 01:05:01
  TRACK 45 AUDIO
    TITLE "0:"
    INDEX 01 01:06:42
  TRACK 46 AUDIO
    TITLE "5:cjc157_6613"
    INDEX 01 01:07:15
  TRACK 47 AUDIO
    TITLE "0:"
    INDEX 01 01:10:30
  TRACK 48 AUDIO
    TITLE "3:cjc157_6614"
    INDEX 01 01:11:00
  TRACK 49 AUDIO
    TITLE "0:"
    INDEX 01 01:12:52
  TRACK 50 AUDIO
    TITLE "4:cjc157_6615"
    INDEX 01 01:13:24
  TRACK 51 AUDIO
    TITLE "0:"
    INDEX 01 01:14:65
  TRACK 52 AUDIO
    TITLE "5:cjc157_6616"
    INDEX 01 01:15:33
  TRACK 53 AUDIO
    TITLE "0:"
    INDEX 01 01:18:17
  TRACK 54 AUDIO
    TITLE "3:cjc157_6617"
    INDEX 01 01:18:62
  TRACK 55 AUDIO
    TITLE "0:"
    INDEX 01 01:20:26
  TRACK 56 AUDIO
    TITLE "4:cjc157_6618"
    INDEX 01 01:20:73
  TRACK 57 AUDIO
    TITLE "0:"
    INDEX 01 01:22:62
  TRACK 58 AUDIO
    TITLE "5:cjc157_6619"
    INDEX 01 01:23:28
  TRACK 59 AUDIO
    TITLE "0:"
    INDEX 01 01:26:01
  TRACK 60 AUDIO
    TITLE "3:cjc157_6620"
    INDEX 01 01:26:44
  TRACK 61 AUDIO
    TITLE "0:"
    INDEX 01 01:28:24
  TRACK 62 AUDIO
    TITLE "4:cjc157_6621"
    INDEX 01 01:28:72
  TRACK 63 AUDIO
    TITLE "0:"
    INDEX 01 01:30:34
  TRACK 64 AUDIO
    TITLE "5:cjc157_6622"
    INDEX 01 01:31:06
  TRACK 65 AUDIO
    TITLE "0:"
    INDEX 01 01:35:04
  TRACK 66 AUDIO
    TITLE "5:cjc157_6623"
    INDEX 01 01:35:47
  TRACK 67 AUDIO
    TITLE "0:"
    INDEX 01 01:39:02
